<svg version="1.1" xmlns="http://www.w3.org/2000/svg" style="display: block;" viewBox="0 0 2048 2048" width="1254" height="1254" preserveAspectRatio="none">
<path transform="translate(0,0)" fill="#3730a3" d="M 936.25 744.058 L 1102.06 743.957 C 1102.19 766.78 1097.54 794.901 1113.46 812.127 C 1122.27 821.501 1134.51 826.895 1147.37 827.07 C 1171.15 827.468 1192.03 810.411 1193.99 787.076 C 1195.12 773.594 1194.57 757.641 1194.62 743.983 L 1211.23 743.914 C 1236.74 743.914 1257.68 746.517 1276.7 765.823 C 1286 775.357 1292.61 787.183 1295.86 800.098 C 1299.16 813.312 1298.15 835.416 1298.13 849.659 L 1298.07 911.926 C 1285.72 923.458 1273.39 935.493 1261.22 947.236 C 1260.86 930.463 1261.23 911.967 1261.37 895.197 C 1261.78 846.353 1227.58 852.88 1192.58 852.861 L 1099.22 852.864 L 904.302 852.839 C 870.603 852.839 836.858 852.536 803.177 853.218 C 785.549 853.575 774.735 865.021 771.032 881.593 C 770.125 938.875 770.975 998.064 770.933 1055.51 L 770.765 1107.47 C 770.73 1116.79 770.275 1131.67 771.836 1140.44 C 773.635 1150.67 778.563 1160.09 785.939 1167.41 C 803.903 1185.5 827.668 1182.43 850.905 1182.34 L 908.993 1182.23 L 1131.53 1182.17 L 1154.4 1220.11 L 909.492 1220.08 L 838.182 1220.11 C 801.762 1220.12 774.359 1223.24 749.167 1191.59 C 728.168 1165.2 733.582 1129.77 733.571 1097.58 L 733.588 985.511 L 733.532 869.422 C 733.53 849.598 732.49 826.388 734.61 806.837 C 738.368 772.158 767.134 748.648 800.868 744.366 C 812.755 743.44 831.455 743.996 843.841 744.003 C 843.651 765.384 839.788 795.588 855.445 812.157 C 864.242 821.467 876.536 826.843 889.378 827.082 C 902.037 827.364 914.273 822.523 923.311 813.655 C 940.418 796.596 936.163 767.807 936.25 744.058 z"/>
<path transform="translate(0,0)" fill="#7c3aed" d="M 1530.95 806.355 L 1531.39 806.741 L 1530.67 808.237 C 1518.19 815.82 1505.65 825.393 1493.82 834.079 C 1398.32 904.187 1318.13 1003.64 1252.02 1101.4 C 1238.09 1122.05 1224.35 1142.83 1210.8 1163.74 C 1204.1 1174.11 1190.16 1203.51 1177.62 1203.17 C 1169.65 1196.22 1148.32 1159.5 1141.04 1148.2 C 1129.65 1130.46 1117.69 1113.11 1105.16 1096.16 C 1094.25 1081.75 1083.33 1067.64 1071.06 1054.36 C 1066.99 1049.96 1055.24 1038.69 1054.57 1033.35 C 1059.3 1023.11 1082.77 1021.5 1093.15 1022.68 C 1130.15 1026.87 1156.09 1055.5 1178.25 1082.72 C 1192.69 1061.69 1222.09 1026.42 1239.41 1007.54 C 1317.95 921.904 1413.97 831.514 1530.95 806.355 z"/>
<path transform="translate(0,0)" fill="#f59e0b" d="M 720.323 582.383 C 783.793 575.476 844.041 606.25 878.913 659.081 C 867.772 661.91 864.135 663.889 854.275 669.898 C 788.233 642.708 709.941 637.435 652.604 685.663 C 578.285 748.175 579.381 848.856 638.521 920.391 C 661.768 948.01 680.8 961.313 709.375 981.478 C 619.847 960.688 556.405 894.547 546.326 801.994 C 540.607 748.612 556.403 695.153 590.216 653.452 C 622.567 613.592 669.303 588.064 720.323 582.383 z"/>
<path transform="translate(0,0)" fill="#7c3aed" d="M 1270.64 582.378 C 1325.75 576.151 1384.79 601.888 1422.36 641.682 C 1465.01 686.859 1477.99 735.161 1476.96 795.58 C 1458.44 802.38 1445.16 808.45 1427.99 817.65 C 1428.43 789.868 1425.49 770.614 1414.72 744.742 L 1413.99 742.978 C 1398.01 706.048 1368.06 676.948 1330.68 662.04 C 1279.65 641.171 1226.71 647.508 1176.89 668.172 C 1166.35 662.099 1162.6 661.106 1150.6 658.582 C 1154.45 652.361 1157.51 647.951 1162.12 642.211 C 1188.81 608.523 1227.9 586.965 1270.64 582.378 z"/>
<path transform="translate(0,0)" fill="#3730a3" d="M 1000.42 322.69 C 1047.43 315.668 1091.25 347.996 1098.42 394.977 C 1105.59 441.959 1073.4 485.886 1026.44 493.203 C 979.274 500.553 935.108 468.189 927.907 420.998 C 920.705 373.807 953.208 329.743 1000.42 322.69 z"/>
<path transform="translate(0,0)" fill="#3730a3" d="M 1011.87 512.438 C 1076.83 510.729 1139.66 537.756 1177.95 591.116 C 1161.87 601.653 1154.02 608.793 1141.16 623.01 C 1104.68 593.476 1066.27 578.874 1019.13 576.82 C 967.949 576.115 925.22 589.907 885.611 622.364 C 873.588 609.436 865.867 602.337 851.571 592.269 C 893.34 540.493 945.6 515.348 1011.87 512.438 z"/>
<path transform="translate(0,0)" fill="#f59e0b" d="M 709.305 412.788 C 750.173 406.621 788.294 434.777 794.416 475.652 C 800.538 516.527 772.339 554.616 731.458 560.693 C 690.64 566.76 652.623 538.615 646.511 497.805 C 640.398 456.994 668.501 418.946 709.305 412.788 z"/>
<path transform="translate(0,0)" fill="#7c3aed" d="M 1291.37 411.819 C 1332.17 405.718 1370.19 433.851 1376.28 474.651 C 1382.38 515.452 1354.24 553.465 1313.43 559.55 C 1272.64 565.633 1234.64 537.502 1228.55 496.713 C 1222.46 455.924 1250.59 417.918 1291.37 411.819 z"/>
<path transform="translate(0,0)" fill="#3730a3" d="M 283.603 1290.34 C 284.002 1290.29 284.401 1290.25 284.8 1290.2 C 313.155 1287.52 341.391 1296.38 363.129 1314.78 L 341.591 1344.57 C 326.121 1332.76 314.576 1325.59 294.676 1324.92 C 278.489 1324.38 258.829 1332.28 259.911 1350.92 C 261.36 1375.85 305.694 1379.69 323.515 1388.36 C 334.473 1393.69 343.737 1396.35 352.675 1405.21 C 375.017 1425.21 373.646 1464 352.747 1484.73 C 335.531 1501.81 314.036 1504.93 290.635 1505.14 C 260.611 1504.3 235.496 1495.81 213.419 1475.09 L 235.761 1446.2 C 238.064 1448.18 240.392 1450.12 242.743 1452.03 C 263.22 1468.63 303.476 1482.73 325.248 1458.64 C 328.379 1455.17 330.156 1445.72 328.871 1441.24 C 322.625 1420.94 286.804 1414.49 266.543 1407.59 C 223.27 1392.86 206.832 1355.26 231.947 1315.79 C 241.756 1300.37 264.967 1292.87 283.603 1290.34 z"/>
<path transform="translate(0,0)" fill="#7c3aed" d="M 1329.89 1290.34 C 1358.93 1287.69 1387.65 1295.77 1409.73 1315 C 1402.44 1324.24 1394.83 1335.09 1387.81 1344.69 C 1373.84 1333.11 1360.94 1325.99 1342.31 1325.02 C 1326.59 1324.2 1306.6 1331.04 1306.63 1349.82 C 1306.66 1369.35 1332.24 1375.59 1346.97 1380.49 C 1365.25 1386.58 1384.85 1391.98 1399.29 1405.55 C 1421.83 1425.93 1419.28 1464.62 1398.51 1485.22 C 1380.91 1502.68 1358.58 1505.08 1335.03 1505.09 C 1306.06 1504.34 1281.56 1494.8 1260.29 1475.13 L 1282.46 1446.08 C 1284.06 1447.47 1285.67 1448.85 1287.29 1450.21 C 1303.7 1463.92 1323.64 1473.05 1345.57 1471.16 C 1354.57 1470.39 1365.49 1466.71 1371.2 1459.22 C 1374.83 1454.36 1376.35 1448.25 1375.43 1442.25 C 1373.25 1428.61 1358.54 1422.93 1347.07 1418.9 C 1316.44 1408.15 1274.78 1400.82 1268.19 1362.5 C 1264.15 1339.01 1272.34 1316.08 1292.7 1302.9 C 1304.6 1295.15 1316.1 1292.32 1329.89 1290.34 z"/>
<path transform="translate(0,0)" fill="#3730a3" d="M 886.53 1353.4 C 904.755 1351.65 928.176 1356.17 941.487 1369.68 C 960.688 1389.17 957.103 1417.8 957.058 1443.15 L 956.955 1501.71 L 922.356 1501.53 L 921.956 1486.28 C 896.265 1511.39 853.79 1512.99 831.874 1482.34 C 807.935 1434.8 855.357 1407.11 896.234 1412.36 C 905.757 1413.59 911.992 1414.42 921.478 1416.82 C 921.358 1409.64 921.479 1401.13 917.045 1395.25 C 900.011 1372.64 868.173 1384.41 849.919 1396.77 C 844.453 1388.71 839.628 1380.71 834.579 1372.4 C 850.455 1359.72 866.699 1355.19 886.53 1353.4 z"/>
<path transform="translate(0,0)" fill="rgb(255,255,255)" d="M 883.631 1437.26 C 899.171 1436.02 906.979 1436.92 921.916 1440.83 C 922.06 1461.31 918.861 1468.12 899.798 1476.4 C 859.733 1485.19 846.158 1447.79 883.631 1437.26 z"/>
<path transform="translate(0,0)" fill="#3730a3" d="M 458.022 1353.38 C 460.011 1353.21 462.007 1353.13 464.003 1353.16 C 501.139 1353.6 526.35 1379.45 530.799 1415.71 C 531.805 1423.91 531.703 1431 531.592 1439.29 C 496.402 1439.18 461.213 1439.24 426.024 1439.48 C 431.212 1458.81 440.248 1472.13 461.724 1475.14 C 471.581 1476.52 487.274 1473.79 495.388 1467.46 L 504.441 1460.49 C 507.526 1460.56 506.819 1460.89 509.78 1463.74 L 525.951 1481.55 C 497.352 1508.87 450.947 1513.47 418.617 1489.76 C 385.583 1465.53 381.928 1410.48 406.976 1379.36 C 420.858 1362.12 436.515 1355.81 458.022 1353.38 z"/>
<path transform="translate(0,0)" fill="rgb(255,255,255)" d="M 459.706 1382.37 C 483.181 1381.52 492.587 1393.88 497.289 1415.05 L 464.297 1415.07 L 426.334 1414.97 C 431.528 1395.37 438.882 1385.79 459.706 1382.37 z"/>
<path transform="translate(0,0)" fill="#7c3aed" d="M 1535.16 1356.21 L 1574.01 1356.57 L 1529.87 1463.69 C 1509.35 1512.58 1499.57 1573.53 1431.54 1554.22 C 1434.11 1544.5 1436.82 1534.82 1439.68 1525.18 C 1466.47 1529.17 1469.53 1522.64 1479.17 1499.04 L 1442.18 1410.91 C 1435.48 1395.15 1424.87 1371.84 1419.64 1356.34 L 1458.84 1356.42 L 1497.79 1457.48 C 1509.97 1424.32 1523.58 1389.36 1535.16 1356.21 z"/>
<path transform="translate(0,0)" fill="#3730a3" d="M 1063.5 1353.34 C 1103.73 1350.17 1121.81 1379.77 1121.73 1415.63 C 1121.66 1444.28 1121.75 1473 1121.51 1501.67 L 1084.95 1501.72 L 1085.09 1445.56 C 1085.11 1435.43 1085.86 1422.38 1084.39 1412.46 C 1080.41 1385.56 1058.84 1378.52 1036.61 1392.86 C 1031.92 1397.4 1027.03 1404.22 1026.42 1410.75 C 1023.73 1439.98 1025.07 1472.4 1025.08 1501.75 L 988.514 1501.7 C 987.983 1453.62 988.506 1404.54 988.623 1356.4 C 1000.67 1356.25 1012.71 1356.26 1024.76 1356.44 L 1024.89 1373.74 C 1037.27 1359.82 1045.22 1355.56 1063.5 1353.34 z"/>
<path transform="translate(0,0)" fill="#7c3aed" d="M 1663.51 1353.34 C 1703.2 1351.58 1721.37 1378.58 1720.95 1414.92 C 1720.85 1423.67 1720.98 1432.79 1720.96 1441.58 L 1720.85 1501.71 L 1684.64 1501.72 C 1684.56 1480.61 1688.16 1414.9 1679.95 1399.27 C 1676.76 1393.2 1671.39 1388.18 1664.67 1386.38 C 1655.38 1383.9 1645.56 1387.19 1637.52 1391.78 C 1621.46 1406.46 1624.76 1427.02 1624.81 1447.03 L 1624.99 1501.73 L 1588.66 1501.76 L 1588.57 1356.18 C 1600.51 1356.36 1612.45 1356.4 1624.39 1356.29 L 1624.54 1373.87 C 1635.88 1359.71 1646.16 1355.33 1663.51 1353.34 z"/>
<path transform="translate(0,0)" fill="#3730a3" d="M 664.19 1356.36 L 703.67 1356.14 C 710.591 1376.03 718.517 1395.85 725.756 1415.66 C 731.239 1430.65 736.687 1446.34 742.874 1461.02 L 781.854 1356.22 L 821.01 1356.32 C 817.693 1365.42 813.061 1376.14 809.37 1385.25 C 792.805 1422.64 776.947 1463.62 761.287 1501.68 L 722.973 1501.69 C 710.71 1468.19 693.938 1432.58 681.182 1399.08 C 675.937 1385.3 668.612 1370.24 664.19 1356.36 z"/>
<path transform="translate(0,0)" fill="#3730a3" d="M 1161.71 1313.01 L 1198.25 1312.96 L 1198.45 1356.2 L 1237 1356.3 L 1236.99 1387.39 C 1224.13 1387.53 1211.28 1387.51 1198.42 1387.32 C 1198.36 1407.81 1196.1 1440.68 1200.51 1460.59 C 1203.96 1476.16 1223.47 1472.42 1235.65 1467.38 L 1241.55 1487.73 L 1243.84 1496.5 C 1214.77 1510.72 1169.4 1508.3 1163.5 1470.71 C 1159.75 1446.81 1161.57 1412.17 1161.68 1387.33 L 1138.05 1387.38 C 1137.95 1377.2 1138.09 1366.75 1138.13 1356.54 L 1161.54 1356.15 C 1161.68 1341.77 1161.74 1327.39 1161.71 1313.01 z"/>
<path transform="translate(0,0)" fill="#7c3aed" d="M 1815.11 1353.4 C 1837.71 1351.95 1857.03 1359.53 1873.03 1375.29 C 1866.11 1383.75 1859.12 1392.16 1852.08 1400.52 C 1844.71 1393.99 1835.94 1387.75 1826.04 1386.58 C 1794.98 1382.89 1777.52 1409.56 1782.1 1437.98 C 1786.54 1465.55 1812.8 1480.27 1838.04 1468.39 C 1843.76 1465.7 1847.55 1462.21 1852.25 1458.15 L 1860.34 1467.56 C 1864.6 1472.5 1869.27 1477.58 1872.84 1483 C 1859.13 1495.83 1848.09 1502.1 1828.82 1504.47 C 1756.73 1513.35 1719.81 1431.75 1762.79 1378.08 C 1775.74 1361.91 1794.51 1355.12 1815.11 1353.4 z"/>
<path transform="translate(0,0)" fill="#3730a3" d="M 631.083 1353.34 C 637.947 1352.86 644.632 1354.47 651.268 1355.95 C 650.603 1365.53 647.869 1381.28 646.424 1391.25 C 611.312 1381.81 592.804 1399.38 593.42 1434.7 C 593.805 1456.77 593.595 1479.58 593.576 1501.69 L 559.165 1501.7 L 557.834 1501.1 C 556.364 1498.16 556.991 1370.49 556.994 1356.22 L 592.993 1356.4 L 592.965 1377.24 C 603.235 1361.64 612.472 1355.65 631.083 1353.34 z"/>
<path transform="translate(0,0)" fill="#3730a3" d="M 830.613 1036.36 C 844.54 1036.2 881.275 1034.88 892.886 1037.76 C 905.837 1040.98 901.229 1099.34 899.296 1110.23 C 898.854 1112.73 891.625 1116.09 889.335 1117.05 C 876.341 1117.16 836.101 1118.61 825.505 1115.28 C 813.735 1111.6 817.803 1055.19 819.767 1044.2 C 820.399 1040.67 827.375 1037.51 830.613 1036.36 z"/>
<path transform="translate(0,0)" fill="#3730a3" d="M 831.455 913.363 C 844.152 913.428 882.505 912.304 892.551 914.788 C 906.139 918.147 901.079 975.462 899.415 986.838 C 899.044 989.378 892.049 992.974 889.748 994.046 C 869.497 994.039 844.012 996.527 824.845 991.456 C 815.303 988.931 817.908 953.794 817.935 945.057 C 817.98 930.615 814.955 917.975 831.455 913.363 z"/>
<path transform="translate(0,0)" fill="#f59e0b" d="M 1085.47 913.393 C 1098.53 913.512 1135.33 912.37 1146.09 914.748 C 1159.56 917.722 1154.6 973.935 1153.31 985.52 C 1152.9 989.222 1146.45 992.607 1143.25 994.023 C 1129.04 994.141 1087.06 996.419 1076.49 990.807 C 1069.4 980.689 1071.97 955.229 1071.53 942.539 C 1071.09 930.022 1070.44 915.734 1085.47 913.393 z"/>
<path transform="translate(0,0)" fill="#3730a3" d="M 957.631 1036.35 C 973.437 1036.06 1003 1035.37 1017.31 1037.29 C 1033.02 1039.39 1027 1097.32 1025.88 1109.15 C 1025.55 1112.66 1018.55 1115.92 1015.69 1117.1 C 999.859 1117.17 967.709 1118.35 953.74 1115.87 C 939.451 1113.33 944.91 1055.37 946.438 1043.85 C 946.953 1039.96 954.335 1037.28 957.631 1036.35 z"/>
<path transform="translate(0,0)" fill="#3730a3" d="M 958.59 913.38 C 969.897 913.34 1011.06 912.174 1019.79 915.203 C 1031.75 919.35 1027.23 974.681 1026.03 985.871 C 1025.63 989.514 1019.15 992.72 1015.96 993.99 C 1003.05 994.068 963.005 995.521 952.562 992.413 C 940.348 988.779 944.411 931.562 946.777 920.521 C 947.601 916.675 955.073 914.178 958.59 913.38 z"/>
<path transform="translate(0,0)" fill="#3730a3" d="M 1296.69 1080.75 C 1299.21 1083.62 1297.57 1102.72 1297.92 1107.71 C 1302.79 1175.79 1285.66 1220.98 1207.97 1219.98 L 1206.96 1218.55 C 1211.87 1208.43 1224.13 1190.35 1230.48 1180.21 C 1251.61 1146.44 1273.69 1113.27 1296.69 1080.75 z"/>
<path transform="translate(0,0)" fill="#3730a3" d="M 885.166 692.132 C 889.97 691.912 894.397 691.876 898.972 693.56 C 904.633 695.643 909.979 700.357 912.267 706.019 C 915.596 714.253 915.74 784.397 911.662 792.215 C 908.16 798.928 902.055 802.108 895.177 804.498 C 868.083 804.894 865.729 789.783 866.37 766.533 C 866.911 746.899 864.464 725.528 868.527 706.329 C 870.002 699.357 879.39 694.537 885.166 692.132 z"/>
<path transform="translate(0,0)" fill="#3730a3" d="M 1144.53 692.148 C 1148.99 691.902 1153.15 692.05 1157.4 693.649 C 1163.23 695.851 1167.44 700.025 1169.81 705.798 C 1173.54 714.871 1173.89 783.298 1169.71 791.97 C 1166.32 798.994 1160.1 801.872 1153.14 804.418 C 1147.9 804.584 1142.79 804.348 1137.89 802.323 C 1133 800.303 1128.99 796.562 1127.15 791.555 C 1123.1 780.542 1122.34 713.692 1127.81 703.556 C 1131.33 697.047 1137.81 694.22 1144.53 692.148 z"/>
<path transform="translate(0,0)" fill="#3730a3" d="M 1335.67 1579.54 C 1350.98 1576.74 1365.65 1586.93 1368.37 1602.25 C 1371.09 1617.58 1360.82 1632.19 1345.48 1634.82 C 1330.26 1637.44 1315.79 1627.27 1313.09 1612.06 C 1310.39 1596.85 1320.48 1582.32 1335.67 1579.54 z"/>
<path transform="translate(0,0)" fill="rgb(255,255,255)" d="M 1337.16 1589.03 C 1346.01 1588.76 1352.81 1591.58 1356.1 1600.37 C 1357.87 1605.24 1357.62 1610.63 1355.4 1615.31 C 1352.64 1621.14 1349.55 1622.88 1343.85 1625.04 C 1320.26 1624.71 1317.15 1598.31 1337.16 1589.03 z"/>
<path transform="translate(0,0)" fill="#f59e0b" d="M 219.12 1602.19 L 418.088 1602.13 L 418.218 1614.35 L 219.075 1614.16 L 219.12 1602.19 z"/>
<path transform="translate(0,0)" fill="#3730a3" d="M 1383.95 1580.01 C 1395.76 1579.86 1423.34 1576.35 1424.31 1592.73 C 1424.7 1599.33 1421.77 1600.9 1418 1605.56 C 1426.06 1613.76 1428.05 1612.33 1425.57 1625.71 C 1416.9 1637.75 1397.84 1634.32 1383.99 1634.26 L 1383.95 1580.01 z"/>
<path transform="translate(0,0)" fill="rgb(255,255,255)" d="M 1395.07 1611.04 C 1402.34 1610.83 1410.68 1609.23 1415 1615.9 C 1415.41 1619.85 1415 1620.24 1413.28 1623.72 C 1406.81 1625.18 1401.64 1624.84 1395.03 1624.76 L 1395.07 1611.04 z"/>
<path transform="translate(0,0)" fill="rgb(255,255,255)" d="M 1398.04 1589.44 C 1404.01 1589.4 1410.5 1588.59 1413.22 1594.8 C 1412.72 1598.69 1412.18 1598.99 1409.67 1601.9 L 1395.1 1602 C 1394.97 1598.08 1394.45 1593.96 1395.75 1590.34 L 1398.04 1589.44 z"/>
<path transform="translate(0,0)" fill="#3730a3" d="M 513.492 1579.96 L 527.02 1580.04 C 527.001 1589.35 527.943 1626.8 526.175 1633.42 C 523.023 1635.04 519.347 1634.73 516.858 1632.25 C 515.169 1627.11 515.943 1619.87 516.121 1614.22 L 516.224 1597.4 C 512.118 1605.87 507.382 1620.51 500.974 1626.59 C 499.27 1627.09 498.489 1627.75 497.23 1626.98 C 491.439 1623.42 483.997 1603.22 481.12 1596.55 C 481.216 1605.13 481.854 1625.41 480.785 1632.96 L 479.508 1633.86 C 475.534 1633.91 473.651 1634.73 471.255 1632.82 C 469.94 1622.07 470.831 1591.92 470.854 1580.04 L 484.359 1580.04 L 498.915 1612.13 L 513.492 1579.96 z"/>
<path transform="translate(0,0)" fill="#3730a3" d="M 1241.67 1580.05 L 1255.06 1579.98 C 1259.98 1590.52 1264.75 1601.81 1269.45 1612.5 C 1273.72 1602.12 1279.32 1590.42 1284 1580.08 L 1297.53 1580.1 C 1297.61 1591.88 1298.52 1622.37 1297.16 1632.63 L 1295.4 1633.73 C 1292.86 1633.92 1290.7 1634.33 1288.32 1633.53 C 1285.94 1628.86 1286.72 1617.14 1286.77 1611.5 L 1286.58 1597.82 C 1283.2 1605.32 1275.79 1627.89 1267.53 1627.01 C 1261.75 1622.63 1255.3 1604.55 1252.16 1597.1 C 1252.02 1606.5 1252.87 1624.34 1251.58 1632.91 C 1249.3 1634.42 1244.1 1634.58 1241.93 1632.85 C 1240.61 1623.88 1241.56 1591.21 1241.67 1580.05 z"/>
<path transform="translate(0,0)" fill="#7c3aed" d="M 1708.37 1602.26 L 1812.63 1602.15 C 1826.22 1602.15 1854.85 1601.37 1866.49 1602.64 C 1867.87 1605.98 1867.31 1610.39 1867.19 1614.13 L 1708.57 1614.18 L 1708.37 1602.26 z"/>
<path transform="translate(0,0)" fill="#3730a3" d="M 968.354 1580.1 C 984.397 1579.71 1013.9 1575.78 1009.45 1601.78 C 1008.44 1607.65 1003.59 1610.72 998.865 1613.57 C 1002.41 1619.8 1009.74 1627.77 1009.34 1633.04 C 1006.1 1635.08 1005.42 1634.27 1000.76 1634.22 C 992.691 1632.09 992.66 1610.8 980.518 1615.14 C 977.164 1621.53 982.944 1627.81 976.253 1633.92 C 972.524 1634.83 972.657 1634.71 969.112 1633.92 C 967.491 1630.83 968.329 1587.14 968.354 1580.1 z"/>
<path transform="translate(0,0)" fill="rgb(255,255,255)" d="M 979.301 1589.88 C 990.195 1589.6 1003 1588.4 996.327 1604.05 C 989.843 1605.99 985.977 1605.74 979.303 1605.82 L 979.301 1589.88 z"/>
<path transform="translate(0,0)" fill="#3730a3" d="M 1157.3 1615.58 C 1157.37 1605.24 1156.68 1591.28 1157.74 1581.33 C 1160.36 1579.71 1163.19 1580.35 1166.72 1580.38 C 1169.91 1583.98 1168.52 1627.3 1168.52 1634.27 C 1164.74 1634.35 1158.58 1635.12 1156.26 1632.02 C 1148.08 1621.08 1140.18 1609.26 1132.36 1598.06 C 1132.5 1605.53 1132.91 1626.98 1131.67 1633.38 C 1128.15 1634.32 1126.44 1633.92 1122.85 1633.6 C 1120.17 1628.35 1121.46 1588.39 1121.54 1580.07 L 1132.6 1580.09 C 1140.98 1591.81 1149.22 1603.64 1157.3 1615.58 z"/>
<path transform="translate(0,0)" fill="#3730a3" d="M 645.758 1616.43 C 645.729 1609.3 644.553 1583.84 647.739 1579.96 C 650.879 1579.94 653.351 1579.46 655.752 1581.24 C 657.206 1588.97 656.667 1623.82 656.707 1634.21 C 654.162 1634.27 651.413 1634.47 648.883 1634.2 C 642.833 1633.56 624.808 1604.22 620.306 1597.88 C 620.356 1604.02 621.785 1631.66 617.73 1634.21 C 613.457 1634.09 613.44 1634.75 610.31 1632.85 C 608.938 1624.27 609.735 1590.84 609.805 1580.03 L 621.12 1580.02 L 645.758 1616.43 z"/>
<path transform="translate(0,0)" fill="#3730a3" d="M 758.724 1579.2 C 770.696 1578.85 774.944 1580.5 783.956 1588.09 C 770.072 1602.86 768.437 1581.01 753.18 1592.05 C 730.534 1608.44 760.879 1635.36 773.124 1622.68 C 774.397 1619.27 774.223 1619.28 773.966 1615.8 C 771.225 1612.63 769.633 1614.27 763.583 1612.44 C 761.135 1609.1 762.011 1609.3 762.008 1604.11 L 784.869 1603.99 L 784.954 1627.1 C 773.579 1634.7 761.123 1638.89 748.273 1631.52 C 741.646 1627.65 736.939 1621.19 735.29 1613.69 C 731.15 1595.65 741.48 1583.06 758.724 1579.2 z"/>
<path transform="translate(0,0)" fill="#3730a3" d="M 562.376 1580.02 L 574.583 1579.99 C 578.301 1589.67 592.66 1624.93 594.449 1632.42 L 593.009 1633.98 C 576.24 1637.5 586.482 1624.32 576.25 1622.8 L 557.204 1622.8 C 556.521 1625.2 555.534 1627.83 554.953 1630.19 C 553.833 1634.71 545.362 1635.37 542.635 1632.96 C 544.778 1623.23 557.969 1591.32 562.376 1580.02 z"/>
<path transform="translate(0,0)" fill="rgb(255,255,255)" d="M 568.199 1592.73 C 570.35 1597.56 576.045 1608.06 574.468 1612.75 L 571.212 1613.26 C 567.373 1613.33 564.823 1614.22 562.453 1611.18 C 561.949 1605.79 565.949 1598.43 568.199 1592.73 z"/>
<path transform="translate(0,0)" fill="#3730a3" d="M 691.78 1580.01 L 703.922 1579.95 C 706.589 1586.83 723.891 1629.03 723.123 1632.93 C 719.925 1636.03 714.961 1635.24 712.355 1632.03 C 711.045 1627.51 710.976 1623.9 706.25 1622.79 L 686.81 1622.74 C 685.859 1625.87 685.016 1628.69 683.668 1631.68 C 682.084 1635.2 674.231 1634.49 672.288 1632.46 C 674.603 1622.51 687.525 1591.07 691.78 1580.01 z"/>
<path transform="translate(0,0)" fill="rgb(255,255,255)" d="M 697.393 1593.67 C 700.242 1596.42 704.859 1608.75 703.896 1612.76 L 701.249 1613.2 L 699.591 1613.24 C 695.086 1613.34 694.523 1613.85 691.917 1611.35 C 691.151 1606.51 695.292 1598.88 697.393 1593.67 z"/>
<path transform="translate(0,0)" fill="#3730a3" d="M 1044.2 1579.97 L 1056.31 1579.97 C 1062.06 1594.77 1072.27 1618.83 1076.51 1633.29 C 1072.52 1634.44 1070.76 1634.13 1066.53 1634.03 C 1061.9 1630.27 1065.07 1625.14 1059.25 1622.81 L 1038.88 1622.82 C 1036.92 1629.75 1034.34 1637.89 1025.25 1633.54 C 1024.45 1628.25 1040.82 1589.26 1044.2 1579.97 z"/>
<path transform="translate(0,0)" fill="rgb(255,255,255)" d="M 1050.2 1592.73 C 1052.38 1597.78 1058.33 1608.3 1055.53 1612.86 L 1051.25 1613.37 C 1049.17 1613.24 1047.39 1613.07 1045.32 1612.87 L 1044.17 1611.22 C 1043.98 1605.25 1047.72 1598.59 1050.2 1592.73 z"/>
<path transform="translate(0,0)" fill="#3730a3" d="M 802.13 1579.97 C 809.694 1580 832.968 1578.68 838.306 1581.25 C 840.7 1594.08 822.198 1589.88 813.097 1589.85 L 813.099 1602.05 C 819.062 1601.92 831.833 1600.76 835.994 1603.93 C 836.207 1606.84 836.568 1608.05 835.301 1610.69 C 831.414 1611.92 818.069 1611.58 813.126 1611.63 L 813.135 1624.54 C 820.083 1624.3 833.176 1622.77 838.216 1626.49 C 839.389 1629.04 839.01 1629.81 838.729 1632.63 C 835.225 1635.38 808.959 1634.25 802.103 1634.27 L 802.13 1579.97 z"/>
<path transform="translate(0,0)" fill="#3730a3" d="M 1607.28 1579.99 C 1614.15 1580.02 1639.25 1578.67 1643.53 1581.34 C 1645.82 1594.1 1627.09 1589.96 1618.15 1589.92 L 1618.1 1601.98 C 1625.24 1602.16 1637.72 1599.19 1641.18 1606.02 C 1639.66 1614.28 1625.54 1611.53 1618.12 1611.59 L 1618.18 1624.48 C 1626.11 1624.74 1636.57 1622.67 1642.74 1626.28 C 1644.52 1629.96 1643.97 1627.98 1643.69 1632.6 C 1640.01 1635.47 1613.85 1634.22 1607.12 1634.16 L 1607.28 1579.99 z"/>
<path transform="translate(0,0)" fill="#3730a3" d="M 1550.86 1580.08 C 1558.05 1579.99 1587.62 1578.23 1591.22 1582.15 C 1591.64 1590.71 1570.73 1615.92 1564.37 1624.39 C 1573.86 1624.62 1582.84 1622.22 1590.32 1625.64 C 1592.43 1628.98 1591.63 1629.29 1591.6 1634.05 C 1580.72 1634.18 1565.15 1635.06 1554.58 1633.59 C 1551.72 1633.19 1550.9 1631.53 1549.77 1629.57 C 1549.97 1622.59 1571.3 1596.94 1576.56 1589.98 C 1567.64 1589.69 1560.22 1591.65 1552.76 1588.84 C 1549.99 1585.49 1550.96 1585.67 1550.86 1580.08 z"/>
<path transform="translate(0,0)" fill="#3730a3" d="M 910.376 1580.02 C 916.8 1579.97 949.904 1578.65 952.628 1581.61 C 952.982 1585.2 953.503 1585.84 952.377 1589.03 C 948.188 1590.53 941.842 1589.99 937.168 1589.94 L 937.321 1617.69 C 937.475 1623.06 938.48 1629.94 935.436 1633.94 C 931.937 1634.04 929.956 1634.39 926.657 1633.16 C 925.309 1627.58 926.049 1597.1 926.105 1589.91 C 921.858 1590.07 915.249 1590.89 911.775 1589.07 C 909.529 1585.35 910.368 1585.19 910.376 1580.02 z"/>
<path transform="translate(0,0)" fill="#3730a3" d="M 1472.12 1579.96 C 1475.95 1579.93 1479.87 1579.42 1482.92 1581.12 C 1484.09 1589.48 1483.45 1614.65 1483.45 1624.31 C 1492.26 1624.57 1499.25 1622.33 1506.3 1625.68 C 1508.55 1629.02 1507.74 1629.18 1507.83 1634.07 L 1472.16 1634.22 C 1472.25 1616.13 1472.24 1598.05 1472.12 1579.96 z"/>
<path transform="translate(0,0)" fill="#3730a3" d="M 1091.66 1579.97 C 1094.89 1579.93 1100.13 1579.43 1102.43 1581.37 C 1103.79 1591.22 1102.97 1622.69 1102.93 1634.15 C 1098.23 1634.34 1096.97 1634.62 1092.55 1633.44 C 1091.16 1628.98 1091.66 1587.88 1091.66 1579.97 z"/>
<path transform="translate(0,0)" fill="#3730a3" d="M 1522.98 1580.04 C 1526.53 1580 1530.2 1579.59 1533.33 1581.05 C 1534.56 1587.09 1534.05 1625.28 1534.05 1634.18 C 1530.72 1634.21 1525.85 1634.69 1523.44 1632.75 C 1522.08 1622.72 1522.93 1591.64 1522.98 1580.04 z"/>
<path transform="translate(0,0)" fill="#3730a3" d="M 1442.92 1580.03 C 1446.11 1579.98 1451.18 1579.48 1453.44 1581.37 C 1454.79 1591.24 1453.94 1622.62 1453.88 1634.09 C 1449.75 1634.22 1447.43 1634.65 1443.63 1633.28 C 1442.27 1627.61 1442.9 1588.6 1442.92 1580.03 z"/>
<path transform="translate(0,0)" fill="#3730a3" d="M 1188.39 1622.42 C 1191.63 1620.76 1195.6 1622.03 1197.29 1625.25 C 1198.98 1628.48 1197.75 1632.46 1194.54 1634.18 C 1191.28 1635.92 1187.24 1634.67 1185.53 1631.4 C 1183.82 1628.13 1185.11 1624.1 1188.39 1622.42 z"/>
<path transform="translate(0,0)" fill="#3730a3" d="M 857.692 1622.47 C 859.846 1621.43 862.4 1621.63 864.364 1623 C 866.328 1624.37 867.395 1626.7 867.152 1629.08 C 866.908 1631.47 865.393 1633.53 863.191 1634.48 C 859.896 1635.9 856.072 1634.42 854.578 1631.16 C 853.084 1627.9 854.467 1624.04 857.692 1622.47 z"/>
<path transform="translate(0,0)" fill="#3730a3" d="M 1661.91 1622.43 C 1664.1 1621.38 1666.7 1621.63 1668.65 1623.08 C 1670.6 1624.54 1671.59 1626.95 1671.21 1629.35 C 1670.83 1631.76 1669.16 1633.75 1666.85 1634.54 C 1663.57 1635.66 1659.99 1634.03 1658.68 1630.82 C 1657.37 1627.61 1658.78 1623.93 1661.91 1622.43 z"/>
</svg>