<svg version="1.1" xmlns="http://www.w3.org/2000/svg" style="display: block;" viewBox="0 0 2048 2048" width="1254" height="1254" preserveAspectRatio="none">
  <defs>
    <linearGradient id="brandPurple" gradientUnits="objectBoundingBox" x1="0" y1="0" x2="1" y2="1">
      <stop offset="0%" stop-color="#3730a3"/>
      <stop offset="60%" stop-color="#7c3aed"/>
      <stop offset="100%" stop-color="#a855f7"/>
    </linearGradient>
  </defs>


<path transform="translate(0,0)" fill="url(#brandPurple)" d="M 936.25 744.058 L 1102.06 743.957 C 1102.19 766.78 1097.54 794.901 1113.46 812.127 C 1122.27 821.501 1134.51 826.895 1147.37 827.07 C 1171.15 827.468 1192.03 810.411 1193.99 787.076 C 1195.12 773.594 1194.57 757.641 1194.62 743.983 L 1211.23 743.914 C 1236.74 743.914 1257.68 746.517 1276.7 765.823 C 1286 775.357 1292.61 787.183 1295.86 800.098 C 1299.16 813.312 1298.15 835.416 1298.13 849.659 L 1298.07 911.926 C 1285.72 923.458 1273.39 935.493 1261.22 947.236 C 1260.86 930.463 1261.23 911.967 1261.37 895.197 C 1261.78 846.353 1227.58 852.88 1192.58 852.861 L 1099.22 852.864 L 904.302 852.839 C 870.603 852.839 836.858 852.536 803.177 853.218 C 785.549 853.575 774.735 865.021 771.032 881.593 C 770.125 938.875 770.975 998.064 770.933 1055.51 L 770.765 1107.47 C 770.73 1116.79 770.275 1131.67 771.836 1140.44 C 773.635 1150.67 778.563 1160.09 785.939 1167.41 C 803.903 1185.5 827.668 1182.43 850.905 1182.34 L 908.993 1182.23 L 1131.53 1182.17 L 1154.4 1220.11 L 909.492 1220.08 L 838.182 1220.11 C 801.762 1220.12 774.359 1223.24 749.167 1191.59 C 728.168 1165.2 733.582 1129.77 733.571 1097.58 L 733.588 985.511 L 733.532 869.422 C 733.53 849.598 732.49 826.388 734.61 806.837 C 738.368 772.158 767.134 748.648 800.868 744.366 C 812.755 743.44 831.455 743.996 843.841 744.003 C 843.651 765.384 839.788 795.588 855.445 812.157 C 864.242 821.467 876.536 826.843 889.378 827.082 C 902.037 827.364 914.273 822.523 923.311 813.655 C 940.418 796.596 936.163 767.807 936.25 744.058 z"/>
<path transform="translate(0,0)" fill="rgb(3,135,204)" d="M 1530.95 806.355 L 1531.39 806.741 L 1530.67 808.237 C 1518.19 815.82 1505.65 825.393 1493.82 834.079 C 1398.32 904.187 1318.13 1003.64 1252.02 1101.4 C 1238.09 1122.05 1224.35 1142.83 1210.8 1163.74 C 1204.1 1174.11 1190.16 1203.51 1177.62 1203.17 C 1169.65 1196.22 1148.32 1159.5 1141.04 1148.2 C 1129.65 1130.46 1117.69 1113.11 1105.16 1096.16 C 1094.25 1081.75 1083.33 1067.64 1071.06 1054.36 C 1066.99 1049.96 1055.24 1038.69 1054.57 1033.35 C 1059.3 1023.11 1082.77 1021.5 1093.15 1022.68 C 1130.15 1026.87 1156.09 1055.5 1178.25 1082.72 C 1192.69 1061.69 1222.09 1026.42 1239.41 1007.54 C 1317.95 921.904 1413.97 831.514 1530.95 806.355 z"/>


<path transform="translate(0,0)" fill="url(#brandPurple)" d="M 1000.42 322.69 C 1047.43 315.668 1091.25 347.996 1098.42 394.977 C 1105.59 441.959 1073.4 485.886 1026.44 493.203 C 979.274 500.553 935.108 468.189 927.907 420.998 C 920.705 373.807 953.208 329.743 1000.42 322.69 z"/>
<path transform="translate(0,0)" fill="url(#brandPurple)" d="M 1011.87 512.438 C 1076.83 510.729 1139.66 537.756 1177.95 591.116 C 1161.87 601.653 1154.02 608.793 1141.16 623.01 C 1104.68 593.476 1066.27 578.874 1019.13 576.82 C 967.949 576.115 925.22 589.907 885.611 622.364 C 873.588 609.436 865.867 602.337 851.571 592.269 C 893.34 540.493 945.6 515.348 1011.87 512.438 z"/>


<path transform="translate(0,0)" fill="url(#brandPurple)" d="M 283.603 1290.34 C 284.002 1290.29 284.401 1290.25 284.8 1290.2 C 313.155 1287.52 341.391 1296.38 363.129 1314.78 L 341.591 1344.57 C 326.121 1332.76 314.576 1325.59 294.676 1324.92 C 278.489 1324.38 258.829 1332.28 259.911 1350.92 C 261.36 1375.85 305.694 1379.69 323.515 1388.36 C 334.473 1393.69 343.737 1396.35 352.675 1405.21 C 375.017 1425.21 373.646 1464 352.747 1484.73 C 335.531 1501.81 314.036 1504.93 290.635 1505.14 C 260.611 1504.3 235.496 1495.81 213.419 1475.09 L 235.761 1446.2 C 238.064 1448.18 240.392 1450.12 242.743 1452.03 C 263.22 1468.63 303.476 1482.73 325.248 1458.64 C 328.379 1455.17 330.156 1445.72 328.871 1441.24 C 322.625 1420.94 286.804 1414.49 266.543 1407.59 C 223.27 1392.86 206.832 1355.26 231.947 1315.79 C 241.756 1300.37 264.967 1292.87 283.603 1290.34 z"/>
<path transform="translate(0,0)" fill="rgb(3,135,204)" d="M 1329.89 1290.34 C 1358.93 1287.69 1387.65 1295.77 1409.73 1315 C 1402.44 1324.24 1394.83 1335.09 1387.81 1344.69 C 1373.84 1333.11 1360.94 1325.99 1342.31 1325.02 C 1326.59 1324.2 1306.6 1331.04 1306.63 1349.82 C 1306.66 1369.35 1332.24 1375.59 1346.97 1380.49 C 1365.25 1386.58 1384.85 1391.98 1399.29 1405.55 C 1421.83 1425.93 1419.28 1464.62 1398.51 1485.22 C 1380.91 1502.68 1358.58 1505.08 1335.03 1505.09 C 1306.06 1504.34 1281.56 1494.8 1260.29 1475.13 L 1282.46 1446.08 C 1284.06 1447.47 1285.67 1448.85 1287.29 1450.21 C 1303.7 1463.92 1323.64 1473.05 1345.57 1471.16 C 1354.57 1470.39 1365.49 1466.71 1371.2 1459.22 C 1374.83 1454.36 1376.35 1448.25 1375.43 1442.25 C 1373.25 1428.61 1358.54 1422.93 1347.07 1418.9 C 1316.44 1408.15 1274.78 1400.82 1268.19 1362.5 C 1264.15 1339.01 1272.34 1316.08 1292.7 1302.9 C 1304.6 1295.15 1316.1 1292.32 1329.89 1290.34 z"/>
<path transform="translate(0,0)" fill="url(#brandPurple)" d="M 886.53 1353.4 C 904.755 1351.65 928.176 1356.17 941.487 1369.68 C 960.688 1389.17 957.103 1417.8 957.058 1443.15 L 956.955 1501.71 L 922.356 1501.53 L 921.956 1486.28 C 896.265 1511.39 853.79 1512.99 831.874 1482.34 C 807.935 1434.8 855.357 1407.11 896.234 1412.36 C 905.757 1413.59 911.992 1414.42 921.478 1416.82 C 921.358 1409.64 921.479 1401.13 917.045 1395.25 C 900.011 1372.64 868.173 1384.41 849.919 1396.77 C 844.453 1388.71 839.628 1380.71 834.579 1372.4 C 850.455 1359.72 866.699 1355.19 886.53 1353.4 z"/>
<path transform="translate(0,0)" fill="rgb(255,255,255)" d="M 883.631 1437.26 C 899.171 1436.02 906.979 1436.92 921.916 1440.83 C 922.06 1461.31 918.861 1468.12 899.798 1476.4 C 859.733 1485.19 846.158 1447.79 883.631 1437.26 z"/>
<path transform="translate(0,0)" fill="url(#brandPurple)" d="M 458.022 1353.38 C 460.011 1353.21 462.007 1353.13 464.003 1353.16 C 501.139 1353.6 526.35 1379.45 530.799 1415.71 C 531.805 1423.91 531.703 1431 531.592 1439.29 C 496.402 1439.18 461.213 1439.24 426.024 1439.48 C 431.212 1458.81 440.248 1472.13 461.724 1475.14 C 471.581 1476.52 487.274 1473.79 495.388 1467.46 L 504.441 1460.49 C 507.526 1460.56 506.819 1460.89 509.78 1463.74 L 525.951 1481.55 C 497.352 1508.87 450.947 1513.47 418.617 1489.76 C 385.583 1465.53 381.928 1410.48 406.976 1379.36 C 420.858 1362.12 436.515 1355.81 458.022 1353.38 z"/>
<path transform="translate(0,0)" fill="rgb(255,255,255)" d="M 459.706 1382.37 C 483.181 1381.52 492.587 1393.88 497.289 1415.05 L 464.297 1415.07 L 426.334 1414.97 C 431.528 1395.37 438.882 1385.79 459.706 1382.37 z"/>
<path transform="translate(0,0)" fill="rgb(3,135,204)" d="M 1535.16 1356.21 L 1574.01 1356.57 L 1529.87 1463.69 C 1509.35 1512.58 1499.57 1573.53 1431.54 1554.22 C 1434.11 1544.5 1436.82 1534.82 1439.68 1525.18 C 1466.47 1529.17 1469.53 1522.64 1479.17 1499.04 L 1442.18 1410.91 C 1435.48 1395.15 1424.87 1371.84 1419.64 1356.34 L 1458.84 1356.42 L 1497.79 1457.48 C 1509.97 1424.32 1523.58 1389.36 1535.16 1356.21 z"/>
<path transform="translate(0,0)" fill="url(#brandPurple)" d="M 1063.5 1353.34 C 1103.73 1350.17 1121.81 1379.77 1121.73 1415.63 C 1121.66 1444.28 1121.75 1473 1121.51 1501.67 L 1084.95 1501.72 L 1085.09 1445.56 C 1085.11 1435.43 1085.86 1422.38 1084.39 1412.46 C 1080.41 1385.56 1058.84 1378.52 1036.61 1392.86 C 1031.92 1397.4 1027.03 1404.22 1026.42 1410.75 C 1023.73 1439.98 1025.07 1472.4 1025.08 1501.75 L 988.514 1501.7 C 987.983 1453.62 988.506 1404.54 988.623 1356.4 C 1000.67 1356.25 1012.71 1356.26 1024.76 1356.44 L 1024.89 1373.74 C 1037.27 1359.82 1045.22 1355.56 1063.5 1353.34 z"/>
<path transform="translate(0,0)" fill="rgb(3,135,204)" d="M 1663.51 1353.34 C 1703.2 1351.58 1721.37 1378.58 1720.95 1414.92 C 1720.85 1423.67 1720.98 1432.79 1720.96 1441.58 L 1720.85 1501.71 L 1684.64 1501.72 C 1684.56 1480.61 1688.16 1414.9 1679.95 1399.27 C 1676.76 1393.2 1671.39 1388.18 1664.67 1386.38 C 1655.38 1383.9 1645.56 1387.19 1637.52 1391.78 C 1621.46 1406.46 1624.76 1427.02 1624.81 1447.03 L 1624.99 1501.73 L 1588.66 1501.76 L 1588.57 1356.18 C 1600.51 1356.36 1612.45 1356.4 1624.39 1356.29 L 1624.54 1373.87 C 1635.88 1359.71 1646.16 1355.33 1663.51 1353.34 z"/>
<path transform="translate(0,0)" fill="url(#brandPurple)" d="M 664.19 1356.36 L 703.67 1356.14 C 710.591 1376.03 718.517 1395.85 725.756 1415.66 C 731.239 1430.65 736.687 1446.34 742.874 1461.02 L 781.854 1356.22 L 821.01 1356.32 C 817.693 1365.42 813.061 1376.14 809.37 1385.25 C 792.805 1422.64 776.947 1463.62 761.287 1501.68 L 722.973 1501.69 C 710.71 1468.19 693.938 1432.58 681.182 1399.08 C 675.937 1385.3 668.612 1370.24 664.19 1356.36 z"/>
<path transform="translate(0,0)" fill="url(#brandPurple)" d="M 1161.71 1313.01 L 1198.25 1312.96 L 1198.45 1356.2 L 1237 1356.3 L 1236.99 1387.39 C 1224.13 1387.53 1211.28 1387.51 1198.42 1387.32 C 1198.36 1407.81 1196.1 1440.68 1200.51 1460.59 C 1203.96 1476.16 1223.47 1472.42 1235.65 1467.38 L 1241.55 1487.73 L 1243.84 1496.5 C 1214.77 1510.72 1169.4 1508.3 1163.5 1470.71 C 1159.75 1446.81 1161.57 1412.17 1161.68 1387.33 L 1138.05 1387.38 C 1137.95 1377.2 1138.09 1366.75 1138.13 1356.54 L 1161.54 1356.15 C 1161.68 1341.77 1161.74 1327.39 1161.71 1313.01 z"/>
<path transform="translate(0,0)" fill="rgb(3,135,204)" d="M 1815.11 1353.4 C 1837.71 1351.95 1857.03 1359.53 1873.03 1375.29 C 1866.11 1383.75 1859.12 1392.16 1852.08 1400.52 C 1844.71 1393.99 1835.94 1387.75 1826.04 1386.58 C 1794.98 1382.89 1777.52 1409.56 1782.1 1437.98 C 1786.54 1465.55 1812.8 1480.27 1838.04 1468.39 C 1843.76 1465.7 1847.55 1462.21 1852.25 1458.15 L 1860.34 1467.56 C 1864.6 1472.5 1869.27 1477.58 1872.84 1483 C 1859.13 1495.83 1848.09 1502.1 1828.82 1504.47 C 1756.73 1513.35 1719.81 1431.75 1762.79 1378.08 C 1775.74 1361.91 1794.51 1355.12 1815.11 1353.4 z"/>
<path transform="translate(0,0)" fill="url(#brandPurple)" d="M 631.083 1353.34 C 637.947 1352.86 644.632 1354.47 651.268 1355.95 C 650.603 1365.53 647.869 1381.28 646.424 1391.25 C 611.312 1381.81 592.804 1399.38 593.42 1434.7 C 593.805 1456.77 593.595 1479.58 593.576 1501.69 L 559.165 1501.7 L 557.834 1501.1 C 556.364 1498.16 556.991 1370.49 556.994 1356.22 L 592.993 1356.4 L 592.965 1377.24 C 603.235 1361.64 612.472 1355.65 631.083 1353.34 z"/>
<path transform="translate(0,0)" fill="url(#brandPurple)" d="M 830.613 1036.36 C 844.54 1036.2 881.275 1034.88 892.886 1037.76 C 905.837 1040.98 901.229 1099.34 899.296 1110.23 C 898.854 1112.73 891.625 1116.09 889.335 1117.05 C 876.341 1117.16 836.101 1118.61 825.505 1115.28 C 813.735 1111.6 817.803 1055.19 819.767 1044.2 C 820.399 1040.67 827.375 1037.51 830.613 1036.36 z"/>
<path transform="translate(0,0)" fill="url(#brandPurple)" d="M 831.455 913.363 C 844.152 913.428 882.505 912.304 892.551 914.788 C 906.139 918.147 901.079 975.462 899.415 986.838 C 899.044 989.378 892.049 992.974 889.748 994.046 C 869.497 994.039 844.012 996.527 824.845 991.456 C 815.303 988.931 817.908 953.794 817.935 945.057 C 817.98 930.615 814.955 917.975 831.455 913.363 z"/>
<path transform="translate(0,0)" fill="rgb(125,188,58)" d="M 1085.47 913.393 C 1098.53 913.512 1135.33 912.37 1146.09 914.748 C 1159.56 917.722 1154.6 973.935 1153.31 985.52 C 1152.9 989.222 1146.45 992.607 1143.25 994.023 C 1129.04 994.141 1087.06 996.419 1076.49 990.807 C 1069.4 980.689 1071.97 955.229 1071.53 942.539 C 1071.09 930.022 1070.44 915.734 1085.47 913.393 z"/>
<path transform="translate(0,0)" fill="url(#brandPurple)" d="M 957.631 1036.35 C 973.437 1036.06 1003 1035.37 1017.31 1037.29 C 1033.02 1039.39 1027 1097.32 1025.88 1109.15 C 1025.55 1112.66 1018.55 1115.92 1015.69 1117.1 C 999.859 1117.17 967.709 1118.35 953.74 1115.87 C 939.451 1113.33 944.91 1055.37 946.438 1043.85 C 946.953 1039.96 954.335 1037.28 957.631 1036.35 z"/>
<path transform="translate(0,0)" fill="url(#brandPurple)" d="M 958.59 913.38 C 969.897 913.34 1011.06 912.174 1019.79 915.203 C 1031.75 919.35 1027.23 974.681 1026.03 985.871 C 1025.63 989.514 1019.15 992.72 1015.96 993.99 C 1003.05 994.068 963.005 995.521 952.562 992.413 C 940.348 988.779 944.411 931.562 946.777 920.521 C 947.601 916.675 955.073 914.178 958.59 913.38 z"/>
<path transform="translate(0,0)" fill="url(#brandPurple)" d="M 1296.69 1080.75 C 1299.21 1083.62 1297.57 1102.72 1297.92 1107.71 C 1302.79 1175.79 1285.66 1220.98 1207.97 1219.98 L 1206.96 1218.55 C 1211.87 1208.43 1224.13 1190.35 1230.48 1180.21 C 1251.61 1146.44 1273.69 1113.27 1296.69 1080.75 z"/>
<path transform="translate(0,0)" fill="url(#brandPurple)" d="M 885.166 692.132 C 889.97 691.912 894.397 691.876 898.972 693.56 C 904.633 695.643 909.979 700.357 912.267 706.019 C 915.596 714.253 915.74 784.397 911.662 792.215 C 908.16 798.928 902.055 802.108 895.177 804.498 C 868.083 804.894 865.729 789.783 866.37 766.533 C 866.911 746.899 864.464 725.528 868.527 706.329 C 870.002 699.357 879.39 694.537 885.166 692.132 z"/>
<path transform="translate(0,0)" fill="url(#brandPurple)" d="M 1144.53 692.148 C 1148.99 691.902 1153.15 692.05 1157.4 693.649 C 1163.23 695.851 1167.44 700.025 1169.81 705.798 C 1173.54 714.871 1173.89 783.298 1169.71 791.97 C 1166.32 798.994 1160.1 801.872 1153.14 804.418 C 1147.9 804.584 1142.79 804.348 1137.89 802.323 C 1133 800.303 1128.99 796.562 1127.15 791.555 C 1123.1 780.542 1122.34 713.692 1127.81 703.556 C 1131.33 697.047 1137.81 694.22 1144.53 692.148 z"/>































</svg>