<svg version="1.1" xmlns="http://www.w3.org/2000/svg" style="display: block;" viewBox="200 250 1400 1050" width="1254" height="940" preserveAspectRatio="xMidYMid meet">
<path transform="translate(0,0)" fill="#3730a3" d="M 936.25 744.058 L 1102.06 743.957 C 1102.19 766.78 1097.54 794.901 1113.46 812.127 C 1122.27 821.501 1134.51 826.895 1147.37 827.07 C 1171.15 827.468 1192.03 810.411 1193.99 787.076 C 1195.12 773.594 1194.57 757.641 1194.62 743.983 L 1211.23 743.914 C 1236.74 743.914 1257.68 746.517 1276.7 765.823 C 1286 775.357 1292.61 787.183 1295.86 800.098 C 1299.16 813.312 1298.15 835.416 1298.13 849.659 L 1298.07 911.926 C 1285.72 923.458 1273.39 935.493 1261.22 947.236 C 1260.86 930.463 1261.23 911.967 1261.37 895.197 C 1261.78 846.353 1227.58 852.88 1192.58 852.861 L 1099.22 852.864 L 904.302 852.839 C 870.603 852.839 836.858 852.536 803.177 853.218 C 785.549 853.575 774.735 865.021 771.032 881.593 C 770.125 938.875 770.975 998.064 770.933 1055.51 L 770.765 1107.47 C 770.73 1116.79 770.275 1131.67 771.836 1140.44 C 773.635 1150.67 778.563 1160.09 785.939 1167.41 C 803.903 1185.5 827.668 1182.43 850.905 1182.34 L 908.993 1182.23 L 1131.53 1182.17 L 1154.4 1220.11 L 909.492 1220.08 L 838.182 1220.11 C 801.762 1220.12 774.359 1223.24 749.167 1191.59 C 728.168 1165.2 733.582 1129.77 733.571 1097.58 L 733.588 985.511 L 733.532 869.422 C 733.53 849.598 732.49 826.388 734.61 806.837 C 738.368 772.158 767.134 748.648 800.868 744.366 C 812.755 743.44 831.455 743.996 843.841 744.003 C 843.651 765.384 839.788 795.588 855.445 812.157 C 864.242 821.467 876.536 826.843 889.378 827.082 C 902.037 827.364 914.273 822.523 923.311 813.655 C 940.418 796.596 936.163 767.807 936.25 744.058 z"/>
<path transform="translate(0,0)" fill="#7c3aed" d="M 1530.95 806.355 L 1531.39 806.741 L 1530.67 808.237 C 1518.19 815.82 1505.65 825.393 1493.82 834.079 C 1398.32 904.187 1318.13 1003.64 1252.02 1101.4 C 1238.09 1122.05 1224.35 1142.83 1210.8 1163.74 C 1204.1 1174.11 1190.16 1203.51 1177.62 1203.17 C 1169.65 1196.22 1148.32 1159.5 1141.04 1148.2 C 1129.65 1130.46 1117.69 1113.11 1105.16 1096.16 C 1094.25 1081.75 1083.33 1067.64 1071.06 1054.36 C 1066.99 1049.96 1055.24 1038.69 1054.57 1033.35 C 1059.3 1023.11 1082.77 1021.5 1093.15 1022.68 C 1130.15 1026.87 1156.09 1055.5 1178.25 1082.72 C 1192.69 1061.69 1222.09 1026.42 1239.41 1007.54 C 1317.95 921.904 1413.97 831.514 1530.95 806.355 z"/>
<path transform="translate(0,0)" fill="#f59e0b" d="M 720.323 582.383 C 783.793 575.476 844.041 606.25 878.913 659.081 C 867.772 661.91 864.135 663.889 854.275 669.898 C 788.233 642.708 709.941 637.435 652.604 685.663 C 578.285 748.175 579.381 848.856 638.521 920.391 C 661.768 948.01 680.8 961.313 709.375 981.478 C 619.847 960.688 556.405 894.547 546.326 801.994 C 540.607 748.612 556.403 695.153 590.216 653.452 C 622.567 613.592 669.303 588.064 720.323 582.383 z"/>
<path transform="translate(0,0)" fill="#7c3aed" d="M 1270.64 582.378 C 1325.75 576.151 1384.79 601.888 1422.36 641.682 C 1465.01 686.859 1477.99 735.161 1476.96 795.58 C 1458.44 802.38 1445.16 808.45 1427.99 817.65 C 1428.43 789.868 1425.49 770.614 1414.72 744.742 L 1413.99 742.978 C 1398.01 706.048 1368.06 676.948 1330.68 662.04 C 1279.65 641.171 1226.71 647.508 1176.89 668.172 C 1166.35 662.099 1162.6 661.106 1150.6 658.582 C 1154.45 652.361 1157.51 647.951 1162.12 642.211 C 1188.81 608.523 1227.9 586.965 1270.64 582.378 z"/>
<path transform="translate(0,0)" fill="#3730a3" d="M 1000.42 322.69 C 1047.43 315.668 1091.25 347.996 1098.42 394.977 C 1105.59 441.959 1073.4 485.886 1026.44 493.203 C 979.274 500.553 935.108 468.189 927.907 420.998 C 920.705 373.807 953.208 329.743 1000.42 322.69 z"/>
<path transform="translate(0,0)" fill="#3730a3" d="M 1011.87 512.438 C 1076.83 510.729 1139.66 537.756 1177.95 591.116 C 1161.87 601.653 1154.02 608.793 1141.16 623.01 C 1104.68 593.476 1066.27 578.874 1019.13 576.82 C 967.949 576.115 925.22 589.907 885.611 622.364 C 873.588 609.436 865.867 602.337 851.571 592.269 C 893.34 540.493 945.6 515.348 1011.87 512.438 z"/>
<path transform="translate(0,0)" fill="#f59e0b" d="M 709.305 412.788 C 750.173 406.621 788.294 434.777 794.416 475.652 C 800.538 516.527 772.339 554.616 731.458 560.693 C 690.64 566.76 652.623 538.615 646.511 497.805 C 640.398 456.994 668.501 418.946 709.305 412.788 z"/>
<path transform="translate(0,0)" fill="#7c3aed" d="M 1291.37 411.819 C 1332.17 405.718 1370.19 433.851 1376.28 474.651 C 1382.38 515.452 1354.24 553.465 1313.43 559.55 C 1272.64 565.633 1234.64 537.502 1228.55 496.713 C 1222.46 455.924 1250.59 417.918 1291.37 411.819 z"/>
<path transform="translate(0,0)" fill="#3730a3" d="M 885.166 692.132 C 889.97 691.912 894.397 691.876 898.972 693.56 C 904.633 695.643 909.979 700.357 912.267 706.019 C 915.596 714.253 915.74 784.397 911.662 792.215 C 908.16 798.928 902.055 802.108 895.177 804.498 C 868.083 804.894 865.729 789.783 866.37 766.533 C 866.911 746.899 864.464 725.528 868.527 706.329 C 870.002 699.357 879.39 694.537 885.166 692.132 z"/>
<path transform="translate(0,0)" fill="#3730a3" d="M 1144.53 692.148 C 1148.99 691.902 1153.15 692.05 1157.4 693.649 C 1163.23 695.851 1167.44 700.025 1169.81 705.798 C 1173.54 714.871 1173.89 783.298 1169.71 791.97 C 1166.32 798.994 1160.1 801.872 1153.14 804.418 C 1147.9 804.584 1142.79 804.348 1137.89 802.323 C 1133 800.303 1128.99 796.562 1127.15 791.555 C 1123.1 780.542 1122.34 713.692 1127.81 703.556 C 1131.33 697.047 1137.81 694.22 1144.53 692.148 z"/>
<path transform="translate(0,0)" fill="#3730a3" d="M 830.613 1036.36 C 844.54 1036.2 881.275 1034.88 892.886 1037.76 C 905.837 1040.98 901.229 1099.34 899.296 1110.23 C 898.854 1112.73 891.625 1116.09 889.335 1117.05 C 876.341 1117.16 836.101 1118.61 825.505 1115.28 C 813.735 1111.6 817.803 1055.19 819.767 1044.2 C 820.399 1040.67 827.375 1037.51 830.613 1036.36 z"/>
<path transform="translate(0,0)" fill="#3730a3" d="M 831.455 913.363 C 844.152 913.428 882.505 912.304 892.551 914.788 C 906.139 918.147 901.079 975.462 899.415 986.838 C 899.044 989.378 892.049 992.974 889.748 994.046 C 869.497 994.039 844.012 996.527 824.845 991.456 C 815.303 988.931 817.908 953.794 817.935 945.057 C 817.98 930.615 814.955 917.975 831.455 913.363 z"/>
<path transform="translate(0,0)" fill="#f59e0b" d="M 1085.47 913.393 C 1098.53 913.512 1135.33 912.37 1146.09 914.748 C 1159.56 917.722 1154.6 973.935 1153.31 985.52 C 1152.9 989.222 1146.45 992.607 1143.25 994.023 C 1129.04 994.141 1087.06 996.419 1076.49 990.807 C 1069.4 980.689 1071.97 955.229 1071.53 942.539 C 1071.09 930.022 1070.44 915.734 1085.47 913.393 z"/>
<path transform="translate(0,0)" fill="#3730a3" d="M 957.631 1036.35 C 973.437 1036.06 1003 1035.37 1017.31 1037.29 C 1033.02 1039.39 1027 1097.32 1025.88 1109.15 C 1025.55 1112.66 1018.55 1115.92 1015.69 1117.1 C 999.859 1117.17 967.709 1118.35 953.74 1115.87 C 939.451 1113.33 944.91 1055.37 946.438 1043.85 C 946.953 1039.96 954.335 1037.28 957.631 1036.35 z"/>
<path transform="translate(0,0)" fill="#3730a3" d="M 958.59 913.38 C 969.897 913.34 1011.06 912.174 1019.79 915.203 C 1031.75 919.35 1027.23 974.681 1026.03 985.871 C 1025.63 989.514 1019.15 992.72 1015.96 993.99 C 1003.05 994.068 963.005 995.521 952.562 992.413 C 940.348 988.779 944.411 931.562 946.777 920.521 C 947.601 916.675 955.073 914.178 958.59 913.38 z"/>
<path transform="translate(0,0)" fill="#3730a3" d="M 1296.69 1080.75 C 1299.21 1083.62 1297.57 1102.72 1297.92 1107.71 C 1302.79 1175.79 1285.66 1220.98 1207.97 1219.98 L 1206.96 1218.55 C 1211.87 1208.43 1224.13 1190.35 1230.48 1180.21 C 1251.61 1146.44 1273.69 1113.27 1296.69 1080.75 z"/>
</svg>
